<?xml version="1.0" standalone="no"?>
<!DOCTYPE svg PUBLIC "-//W3C//DTD SVG 20010904//EN"
 "http://www.w3.org/TR/2001/REC-SVG-20010904/DTD/svg10.dtd">
<svg version="1.0" xmlns="http://www.w3.org/2000/svg"
 width="730.000000pt" height="730.000000pt" viewBox="0 0 730.000000 730.000000"
 preserveAspectRatio="xMidYMid meet">
<metadata>
Created by potrace 1.11, written by Peter Selinger 2001-2013
</metadata>
<g transform="translate(0.000000,730.000000) scale(0.100000,-0.100000)"
fill="#000000" stroke="none">
<path d="M3320 6965 l0 -185 -1435 0 -1435 0 2 -1977 3 -1978 1433 -3 1432 -2
0 -444 0 -444 -28 -64 c-16 -34 -66 -125 -111 -201 -97 -162 -149 -269 -191
-387 l-29 -85 -18 45 c-29 76 -120 248 -166 313 -24 34 -80 113 -125 175 -91
127 -157 242 -204 358 l-32 78 -22 -114 c-29 -155 -43 -199 -139 -455 -81
-215 -122 -351 -145 -486 l-11 -65 -62 60 c-73 72 -158 120 -249 141 -39 9
-161 19 -299 25 -129 5 -244 12 -256 16 -28 8 -28 3 -2 -76 46 -141 126 -265
290 -450 256 -289 358 -475 385 -703 l6 -57 1821 2 1820 3 33 125 c17 69 43
155 58 193 23 62 24 66 6 57 -44 -23 -109 -12 -194 35 -92 50 -139 57 -183 28
-26 -17 -27 -17 -19 2 5 11 28 79 53 150 77 228 84 266 90 500 l5 210 -49 -75
c-100 -153 -211 -232 -355 -249 -42 -6 -129 -6 -206 -1 -122 7 -242 1 -285
-16 -23 -8 -22 -1 13 84 141 346 152 749 40 1395 l-12 66 -101 -92 c-56 -51
-167 -149 -247 -217 -183 -158 -262 -233 -325 -309 -27 -33 -53 -60 -56 -60
-4 -1 -9 169 -13 376 -3 208 -9 431 -12 496 l-7 117 1562 0 1561 0 0 1980 0
1980 -1572 2 -1573 3 -3 183 -2 182 -220 0 -220 0 0 -185z m631 -661 c109 -33
183 -116 214 -244 28 -116 17 -347 -28 -575 -20 -99 -68 -400 -107 -670 -79
-545 -128 -806 -195 -1042 -59 -208 -97 -284 -179 -361 -93 -87 -160 -117
-261 -117 -73 0 -89 4 -175 43 -122 55 -287 149 -374 214 -78 59 -98 93 -117
203 -12 71 -11 131 10 717 10 266 3 376 -28 437 -35 68 -104 65 -174 -7 -67
-69 -94 -155 -236 -742 -107 -440 -166 -588 -277 -689 -206 -190 -614 -163
-812 53 -91 99 -118 218 -107 466 4 98 1 212 -10 350 -45 586 -79 931 -106
1095 -36 212 -48 424 -29 517 15 80 62 168 113 214 49 45 164 100 239 115 154
31 265 -48 322 -231 51 -162 65 -320 76 -870 5 -245 12 -458 15 -475 28 -139
45 -183 87 -222 81 -75 123 -18 188 257 143 603 186 752 257 894 67 133 128
205 202 239 52 23 137 20 277 -8 101 -21 151 -43 203 -91 91 -82 119 -160 176
-499 73 -433 134 -654 185 -670 26 -8 68 14 89 49 56 92 79 260 91 681 23 780
40 916 115 945 101 38 269 50 356 24z m2175 -274 c160 -13 286 -35 334 -60 42
-22 50 -44 50 -146 0 -133 -39 -235 -116 -302 -69 -61 -137 -84 -270 -90 -128
-5 -221 6 -410 48 -74 16 -161 30 -193 30 -195 0 -305 -128 -305 -355 0 -131
17 -198 66 -251 74 -80 171 -95 444 -68 184 18 186 18 222 -1 82 -45 128 -162
120 -307 -3 -51 -10 -105 -16 -119 l-10 -26 -247 -7 c-359 -11 -462 -20 -494
-43 -68 -50 -91 -179 -71 -395 7 -78 14 -223 14 -322 l1 -181 -30 -53 c-35
-64 -71 -97 -144 -130 -187 -86 -551 58 -648 257 l-28 56 -8 410 c-8 419 3
1017 24 1263 30 354 107 596 211 660 95 58 452 118 808 135 164 8 580 6 696
-3z"/>
</g>
</svg>
